<?xml version="1.0" encoding="UTF-8" standalone="no"?>
<svg
   width="18"
   height="18"
   viewBox="0 0 18 18"
   version="1.1"
   id="svg10"
   sodipodi:docname="Azure-Quantum.svg"
   inkscape:version="1.1.2 (b8e25be833, 2022-02-05)"
   xmlns:inkscape="http://www.inkscape.org/namespaces/inkscape"
   xmlns:sodipodi="http://sodipodi.sourceforge.net/DTD/sodipodi-0.dtd"
   xmlns="http://www.w3.org/2000/svg"
   xmlns:svg="http://www.w3.org/2000/svg">
  <defs
     id="defs14" />
  <sodipodi:namedview
     id="namedview12"
     pagecolor="#ffffff"
     bordercolor="#666666"
     borderopacity="1.0"
     inkscape:pageshadow="2"
     inkscape:pageopacity="0.0"
     inkscape:pagecheckerboard="0"
     showgrid="false"
     inkscape:zoom="48.5"
     inkscape:cx="9"
     inkscape:cy="8.9896907"
     inkscape:window-width="2560"
     inkscape:window-height="1369"
     inkscape:window-x="-8"
     inkscape:window-y="-8"
     inkscape:window-maximized="1"
     inkscape:current-layer="svg10" />
  <g
     id="g8"
     transform="matrix(0.87399771,0,0,0.87399771,1.002921,1.1340206)">
    <title
       id="title2" />
    <path
       d="m 14.6,18 c -0.1,0 -0.1,0 0,0 L 11,15.9 9.2,16.9 1.9,12.7 V 4.2 L 9.1,0 16.4,4.2 v 8.6 l -1.7,1 1.7,1 v 2.3 z"
       fill="#0078d4"
       id="path4" />
    <path
       d="M 16.5,12.7 V 4.2 L 9.1,0 H 9 L 1.8,4.2 v 8.6 l 7.3,4.2 1.8,-1 1.8,1 1.8,1 1.8,-1 v -2.3 l -1.7,-1 1.9,-1 c -0.1,0 0,0 0,0 z m -3.7,1.9 v -1.8 l 1.6,0.9 z M 9,8.3 7.5,7.4 9,6.5 Z M 9.2,6.5 10.8,7.4 9.2,8.3 Z M 8.9,8.5 7.4,9.4 V 7.6 Z M 9,8.6 v 1.8 L 7.5,9.5 Z m 0.2,0 1.6,0.9 -1.6,0.9 z M 9.3,8.5 10.9,7.6 v 1.8 z m 0,-2.1 1.6,-0.9 V 7.3 Z M 7.4,7.3 V 5.5 L 9,6.4 Z M 7.2,9.4 5.6,8.5 7.2,7.6 Z m 1.7,1.2 -1.6,0.9 V 9.7 Z m 1.9,-0.9 v 1.8 L 9.2,10.6 Z M 11,7.6 12.6,8.5 11,9.4 Z M 11.1,7.4 12.7,6.5 V 8.3 Z M 11,7.3 V 5.5 l 1.6,0.9 z M 9.2,6.2 V 4.4 l 1.6,0.9 z M 9,6.2 7.5,5.3 9,4.4 Z M 7.2,7.3 5.6,6.4 7.2,5.5 Z M 7.1,7.4 5.6,8.3 V 6.5 Z m 0,2.1 -1.6,0.9 V 8.6 Z m 0.1,0.2 v 1.8 L 5.6,10.6 Z m 1.8,1 v 1.8 L 7.4,11.6 Z m 0.2,0 1.6,0.9 -1.6,0.9 z m 1.8,-1 1.6,0.9 -1.6,0.9 z m 0.1,-0.2 1.6,-0.9 v 1.8 z m 1.7,-3 1.6,0.9 -1.6,0.9 z M 11.1,5.3 12.7,4.4 V 6.2 Z M 9.3,4.3 10.9,3.4 V 5.2 Z M 7.4,5.2 V 3.4 L 9,4.3 Z m -1.8,1 V 4.4 L 7.2,5.3 Z M 5.4,8.3 3.8,7.4 5.4,6.5 Z m 0,2.1 L 3.8,9.5 5.4,8.6 Z m 1.7,1.2 -1.6,0.9 v -1.8 z m 1.8,1.1 -1.6,0.9 v -1.8 z m 1.9,-0.9 v 1.8 L 9.2,12.7 Z m 1.9,-1.1 v 1.8 l -1.6,-0.9 z m 0.1,-2.1 1.6,0.9 -1.6,0.9 z m 0.1,-0.1 1.6,-0.9 v 1.8 z m 0,-2.1 1.6,-0.9 V 7.3 Z M 12.8,6.2 V 4.4 l 1.6,0.9 z M 11,5.2 V 3.4 l 1.6,0.9 z M 9.2,4.1 V 2.3 l 1.6,0.9 z M 9,4.1 7.5,3.2 9,2.3 Z M 7.2,5.2 5.6,4.3 7.2,3.4 Z M 5.4,6.2 3.8,5.3 5.4,4.4 Z M 5.3,6.4 3.7,7.3 V 5.5 Z m 0,2.1 -1.6,0.9 V 7.6 Z m 0,2.1 -1.6,0.9 V 9.7 Z m 0.1,0.1 v 1.8 L 3.8,11.6 Z m 1.8,1.1 v 1.8 L 5.6,12.7 Z m 1.8,1 v 1.8 L 7.4,13.7 Z m 0.2,0 1.6,0.9 -1.6,0.9 z m 1.8,-1 1.6,0.9 -1.6,0.9 z m 1.8,-1.1 1.6,0.9 -1.6,0.9 z m 0.1,-0.1 1.6,-0.9 v 1.8 z m 1.7,-3 1.6,0.9 -1.6,0.9 z m 0,-2.1 1.6,0.9 -1.6,0.9 z M 12.9,4.3 14.5,3.4 V 5.2 Z M 11.1,3.2 12.7,2.3 V 4.1 Z M 9.3,2.2 10.9,1.3 V 3.1 Z M 7.4,3.1 V 1.3 L 9,2.2 Z m -1.8,1 V 2.3 L 7.2,3.2 Z M 3.7,5.2 V 3.4 L 5.3,4.3 Z M 3.6,7.3 2,6.4 3.6,5.5 Z M 3.6,9.4 2,8.5 3.6,7.6 Z m 0,2.1 L 2,10.6 3.6,9.7 Z m 1.7,1.2 -1.6,0.9 v -1.8 z m 1.8,1 -1.6,0.9 v -1.8 z m 1.8,1.1 -1.6,0.9 v -1.8 z m 1.9,-0.9 v 1.8 L 9.2,14.8 Z m 1.9,-1.1 v 1.8 l -1.6,-0.9 z m 1.8,1.1 v 1.8 l -1.6,-0.9 z m -1.6,-1.2 1.6,-0.9 v 1.8 z m 1.7,-3 1.6,0.9 -1.6,0.9 z m 0.1,-0.2 1.6,-0.9 v 1.8 z m 0,-2.1 1.6,-0.9 v 1.8 z m 0,-2.1 1.6,-0.9 V 6.2 Z M 14.6,5.2 V 3.4 l 1.6,0.9 z M 12.8,4.1 V 2.3 l 1.6,0.9 z M 11,3.1 V 1.3 l 1.6,0.9 z M 9.2,2 V 0.2 l 1.6,0.9 z M 9,2 7.5,1.1 9,0.2 Z M 7.2,3.1 5.6,2.2 7.2,1.3 Z M 5.4,4.1 3.8,3.2 5.4,2.3 Z M 3.6,5.2 2,4.3 3.6,3.4 Z M 3.5,5.3 1.9,6.2 V 4.4 Z m 0,2.1 -1.6,0.9 V 6.5 Z m 0,2.1 -1.6,0.9 V 8.6 Z m 0,2.1 -1.6,0.9 v -1.8 z m 0.1,0.2 v 1.8 L 2,12.7 Z m 1.8,1 v 1.8 L 3.8,13.7 Z m 1.8,1.1 v 1.8 L 5.6,14.8 Z m 1.8,1 v 1.8 L 7.4,15.8 Z m 0.2,0 1.6,0.9 -1.6,0.9 z m 1.8,-1 1.6,0.9 -1.6,0.9 z m 3.4,1.9 -1.6,0.9 v -1.8 z m 0.1,0.2 v 1.8 l -1.6,-0.9 z m 0.1,0 1.6,0.9 -1.6,0.9 z m 0.1,-0.2 1.6,-0.9 v 1.8 z m -0.1,-0.1 v -1.8 l 1.6,0.9 z m 0,-3.9 1.6,0.9 -1.6,0.9 z m 0.1,-0.2 1.6,-0.9 v 1.8 z m -2,3.3 v 1.8 l -1.6,-0.9 z"
       class="msportalfx-svg-c01"
       id="path6" />
  </g>
</svg>
