<?xml version="1.0" encoding="UTF-8" standalone="no"?>
<svg
   viewBox="0 0 576 576"
   version="1.1"
   id="svg4"
   sodipodi:docname="favicon.svg"
   inkscape:version="1.1.2 (b8e25be833, 2022-02-05)"
   inkscape:export-filename="C:\Users\lrivallain\wd\azure_docs_watcher\static\favicon.png"
   inkscape:export-xdpi="200"
   inkscape:export-ydpi="200"
   width="576"
   height="576"
   xmlns:inkscape="http://www.inkscape.org/namespaces/inkscape"
   xmlns:sodipodi="http://sodipodi.sourceforge.net/DTD/sodipodi-0.dtd"
   xmlns="http://www.w3.org/2000/svg"
   xmlns:svg="http://www.w3.org/2000/svg">
  <defs
     id="defs8" />
  <sodipodi:namedview
     id="namedview6"
     pagecolor="#ffffff"
     bordercolor="#666666"
     borderopacity="1.0"
     inkscape:pageshadow="2"
     inkscape:pageopacity="0.0"
     inkscape:pagecheckerboard="0"
     showgrid="false"
     showguides="true"
     inkscape:guide-bbox="true"
     inkscape:zoom="1.7050781"
     inkscape:cx="288.25659"
     inkscape:cy="303.7984"
     inkscape:window-width="2560"
     inkscape:window-height="1369"
     inkscape:window-x="-8"
     inkscape:window-y="-8"
     inkscape:window-maximized="1"
     inkscape:current-layer="svg4" />
  <!--! Font Awesome Pro 6.2.0 by @fontawesome - https://fontawesome.com License - https://fontawesome.com/license (Commercial License) Copyright 2022 Fonticons, Inc. -->
  <path
     id="path2"
     style="fill:#0078d4;fill-opacity:1"
     d="m 288,192 c -2.8,0 -5.60039,0.10039 -8.40039,0.40039 5.3,9.3 8.40039,20.09961 8.40039,31.59961 0,35.3 -28.7,64 -64,64 -11.5,0 -22.29961,-3.00039 -31.59961,-8.40039 C 192.20039,282.39961 192,285.1 192,288 c 0,53 43,96 96,96 53,0 96,-43 96,-96 0,-53 -43,-96 -96,-96 z" />
  <path
     id="path1693"
     style="fill:#ffb900;fill-opacity:0.87451"
     d="m 288,63.999999 c -80.8,0 -145.49961,36.799611 -192.599609,80.599611 -46.8,43.4 -78.100391,95.40156 -92.900391,131.10156 -3.3,7.9 -3.3,16.69961 0,24.59961 14.8,35.7 46.100391,87.69961 92.900391,131.09961 C 142.50039,475.20039 207.2,512 288,512 c 80.8,0 145.49961,-36.79961 192.59961,-80.59961 46.8,-43.5 78.1,-95.39961 93,-131.09961 3.3,-7.9 3.3,-16.69961 0,-24.59961 -14.9,-35.7 -46.2,-87.70156 -93,-131.10156 C 433.49961,100.79961 368.8,63.999999 288,63.999999 Z M 288,144 c 79.5,0 144,64.5 144,144 0,79.5 -64.5,144 -144,144 -79.5,0 -144,-64.5 -144,-144 0,-79.5 64.5,-144 144,-144 z m 0.84375,34.91406 a 108.79267,108.20618 0 0 1 5.33789,0.13086 108.79267,108.20618 0 0 0 -5.33789,-0.13086 z" />
</svg>
