<?xml version="1.0" encoding="UTF-8" standalone="no"?>
<svg
   viewBox="0 0 576 512"
   version="1.1"
   id="svg4"
   sodipodi:docname="favicon.svg"
   inkscape:version="1.1.2 (b8e25be833, 2022-02-05)"
   xmlns:inkscape="http://www.inkscape.org/namespaces/inkscape"
   xmlns:sodipodi="http://sodipodi.sourceforge.net/DTD/sodipodi-0.dtd"
   xmlns="http://www.w3.org/2000/svg"
   xmlns:svg="http://www.w3.org/2000/svg">
  <defs
     id="defs8" />
  <sodipodi:namedview
     id="namedview6"
     pagecolor="#ffffff"
     bordercolor="#666666"
     borderopacity="1.0"
     inkscape:pageshadow="2"
     inkscape:pageopacity="0.0"
     inkscape:pagecheckerboard="0"
     showgrid="false"
     showguides="true"
     inkscape:guide-bbox="true"
     inkscape:zoom="1.7050781"
     inkscape:cx="288.25659"
     inkscape:cy="303.7984"
     inkscape:window-width="2560"
     inkscape:window-height="1369"
     inkscape:window-x="-8"
     inkscape:window-y="-8"
     inkscape:window-maximized="1"
     inkscape:current-layer="svg4" />
  <!--! Font Awesome Pro 6.2.0 by @fontawesome - https://fontawesome.com License - https://fontawesome.com/license (Commercial License) Copyright 2022 Fonticons, Inc. -->
  <path
     id="path2"
     style="fill:#0078d4;fill-opacity:1"
     d="M 288 160.29297 C 285.2 160.29297 282.39961 160.39336 279.59961 160.69336 C 284.89961 169.99336 288 180.79297 288 192.29297 C 288 227.59297 259.3 256.29297 224 256.29297 C 212.5 256.29297 201.70039 253.29258 192.40039 247.89258 C 192.20039 250.69258 192 253.39297 192 256.29297 C 192 309.29297 235 352.29297 288 352.29297 C 341 352.29297 384 309.29297 384 256.29297 C 384 203.29297 341 160.29297 288 160.29297 z " />
  <path
     id="path1693"
     style="fill:#ffb900;fill-opacity:0.87450981"
     d="M 288 32.292969 C 207.2 32.292969 142.50039 69.092578 95.400391 112.89258 C 48.600391 156.29258 17.3 208.29414 2.5 243.99414 C -0.8 251.89414 -0.8 260.69375 2.5 268.59375 C 17.3 304.29375 48.600391 356.29336 95.400391 399.69336 C 142.50039 443.49336 207.2 480.29297 288 480.29297 C 368.8 480.29297 433.49961 443.49336 480.59961 399.69336 C 527.39961 356.19336 558.69961 304.29375 573.59961 268.59375 C 576.89961 260.69375 576.89961 251.89414 573.59961 243.99414 C 558.69961 208.29414 527.39961 156.29258 480.59961 112.89258 C 433.49961 69.092578 368.8 32.292969 288 32.292969 z M 288 112.29297 C 367.5 112.29297 432 176.79297 432 256.29297 C 432 335.79297 367.5 400.29297 288 400.29297 C 208.5 400.29297 144 335.79297 144 256.29297 C 144 176.79297 208.5 112.29297 288 112.29297 z M 288.84375 147.20703 A 108.79267 108.20618 0 0 1 294.18164 147.33789 A 108.79267 108.20618 0 0 0 288.84375 147.20703 z " />
</svg>
